# xmcd CD database file
#
# Track frame offsets:
#	150
#	43430
#	65939
#	94378
#
# Disc length: 1881 seconds
#
# Revision: 0
# Processed by: cddbd v1.5.2PL0 Copyright (c) Steve Scherf et al.
# Submitted via: CDex 1.51
#
DISCID=3f075704
DTITLE=NIGEL KENNEDY QUINTET - BBC Proms 2008
DYEAR=2008
DGENRE=Jazz
TTITLE0=Nice Bottle Of Beaujolais, Innit?
TTITLE1=Hills Of Saturn(Part A.)
TTITLE2=Hills Of Saturn(Part B.)(Featuring Jeff Beck)
TTITLE3=Third Stone From The Sun
EXTD=YEAR: 2008
EXTT0=
EXTT1=
EXTT2=
EXTT3=
PLAYORDER=
